<svg xmlns="http://www.w3.org/2000/svg" xmlns:xlink="http://www.w3.org/1999/xlink" width="500" zoomAndPan="magnify" viewBox="0 0 375 374.999991" height="500" preserveAspectRatio="xMidYMid meet" version="1.0"><defs><clipPath id="25d0a1c2ec"><path d="M 36 12 L 339 12 L 339 363 L 36 363 Z M 36 12 " clip-rule="nonzero"/></clipPath><clipPath id="13b442ec79"><path d="M 67.914062 99.800781 C 67.914062 68.980469 92.898438 43.996094 123.71875 43.996094 L 251.273438 43.996094 C 282.09375 43.996094 307.078125 68.980469 307.078125 99.800781 L 307.078125 227.355469 C 307.078125 253.894531 288.539062 276.140625 263.691406 281.78125 C 256.429688 283.425781 251.273438 289.882812 251.273438 297.328125 L 251.273438 315.050781 L 213.007812 286.351562 C 210.246094 284.28125 206.890625 283.164062 203.441406 283.164062 L 123.71875 283.164062 C 92.898438 283.164062 67.914062 258.175781 67.914062 227.355469 Z M 123.71875 12.109375 C 75.285156 12.109375 36.023438 51.371094 36.023438 99.800781 L 36.023438 227.355469 C 36.023438 275.789062 75.285156 315.050781 123.71875 315.050781 L 198.125 315.050781 L 257.652344 359.695312 C 262.484375 363.320312 268.945312 363.902344 274.347656 361.199219 C 279.75 358.5 283.164062 352.980469 283.164062 346.941406 L 283.164062 309.066406 C 315.824219 296.308594 338.96875 264.550781 338.96875 227.355469 L 338.96875 99.800781 C 338.96875 51.371094 299.707031 12.109375 251.273438 12.109375 Z M 139.664062 51.96875 C 117.648438 51.96875 99.800781 69.816406 99.800781 91.832031 C 99.800781 113.84375 117.648438 131.691406 139.664062 131.691406 C 117.648438 131.691406 99.800781 149.539062 99.800781 171.550781 L 99.800781 235.328125 C 99.800781 257.34375 117.648438 275.191406 139.664062 275.191406 C 161.675781 275.191406 179.523438 257.34375 179.523438 235.328125 L 179.523438 171.550781 C 179.523438 149.539062 161.675781 131.691406 139.664062 131.691406 C 161.675781 131.691406 179.523438 113.84375 179.523438 91.832031 C 179.523438 69.816406 161.675781 51.96875 139.664062 51.96875 Z M 131.691406 91.832031 C 131.691406 87.425781 135.261719 83.859375 139.664062 83.859375 C 144.066406 83.859375 147.636719 87.425781 147.636719 91.832031 C 147.636719 96.234375 144.066406 99.800781 139.664062 99.800781 C 135.261719 99.800781 131.691406 96.234375 131.691406 91.832031 Z M 139.664062 163.578125 C 135.261719 163.578125 131.691406 167.148438 131.691406 171.550781 L 131.691406 235.328125 C 131.691406 239.730469 135.261719 243.300781 139.664062 243.300781 C 144.066406 243.300781 147.636719 239.730469 147.636719 235.328125 L 147.636719 171.550781 C 147.636719 167.148438 144.066406 163.578125 139.664062 163.578125 Z M 195.46875 171.550781 C 195.46875 149.539062 213.316406 131.691406 235.328125 131.691406 C 257.34375 131.691406 275.191406 149.539062 275.191406 171.550781 L 275.191406 235.328125 C 275.191406 257.34375 257.34375 275.191406 235.328125 275.191406 C 213.316406 275.191406 195.46875 257.34375 195.46875 235.328125 Z M 235.328125 163.578125 C 230.925781 163.578125 227.355469 167.148438 227.355469 171.550781 L 227.355469 235.328125 C 227.355469 239.730469 230.925781 243.300781 235.328125 243.300781 C 239.730469 243.300781 243.300781 239.730469 243.300781 235.328125 L 243.300781 171.550781 C 243.300781 167.148438 239.730469 163.578125 235.328125 163.578125 Z M 195.46875 91.832031 C 195.46875 69.816406 213.316406 51.96875 235.328125 51.96875 C 257.34375 51.96875 275.191406 69.816406 275.191406 91.832031 C 275.191406 113.84375 257.34375 131.691406 235.328125 131.691406 C 213.316406 131.691406 195.46875 113.84375 195.46875 91.832031 Z M 235.328125 83.859375 C 230.925781 83.859375 227.355469 87.425781 227.355469 91.832031 C 227.355469 96.234375 230.925781 99.800781 235.328125 99.800781 C 239.730469 99.800781 243.300781 96.234375 243.300781 91.832031 C 243.300781 87.425781 239.730469 83.859375 235.328125 83.859375 Z M 235.328125 83.859375 " clip-rule="evenodd"/></clipPath></defs><rect x="-37.5" width="450" fill="#ffffff" y="-37.499999" height="449.999989" fill-opacity="1"/><rect x="-37.5" width="450" fill="#000000" y="-37.499999" height="449.999989" fill-opacity="1"/><g clip-path="url(#25d0a1c2ec)"><g clip-path="url(#13b442ec79)"><path fill="#5e2bff" d="M 36.023438 12.109375 L 36.023438 363.902344 L 338.96875 363.902344 L 338.96875 12.109375 Z M 36.023438 12.109375 " fill-opacity="1" fill-rule="nonzero"/></g></g></svg>