<svg xmlns="http://www.w3.org/2000/svg" xmlns:xlink="http://www.w3.org/1999/xlink" width="157" zoomAndPan="magnify" viewBox="0 0 117.75 74.999997" height="100" preserveAspectRatio="xMidYMid meet" version="1.0"><defs><g/><clipPath id="1d32f78ab3"><path d="M 0 0.484375 L 117.5 0.484375 L 117.5 74.917969 L 0 74.917969 Z M 0 0.484375 " clip-rule="nonzero"/></clipPath><clipPath id="c49c675f7c"><path d="M 1.953125 0.484375 L 115.546875 0.484375 C 116.066406 0.484375 116.5625 0.6875 116.929688 1.054688 C 117.292969 1.421875 117.5 1.917969 117.5 2.433594 L 117.5 72.96875 C 117.5 73.484375 117.292969 73.980469 116.929688 74.347656 C 116.5625 74.714844 116.066406 74.921875 115.546875 74.921875 L 1.953125 74.921875 C 1.433594 74.921875 0.9375 74.714844 0.570312 74.347656 C 0.207031 73.980469 0 73.484375 0 72.96875 L 0 2.433594 C 0 1.917969 0.207031 1.421875 0.570312 1.054688 C 0.9375 0.6875 1.433594 0.484375 1.953125 0.484375 Z M 1.953125 0.484375 " clip-rule="nonzero"/></clipPath></defs><g clip-path="url(#1d32f78ab3)"><g clip-path="url(#c49c675f7c)"><path fill="#f1f1f1" d="M 0 0.484375 L 117.472656 0.484375 L 117.472656 74.921875 L 0 74.921875 Z M 0 0.484375 " fill-opacity="1" fill-rule="nonzero"/></g></g><path stroke-linecap="round" transform="matrix(0.101552, 0, 0, 0.101552, 13.576811, 10.508158)" fill="none" stroke-linejoin="miter" d="M 121.025564 246.099197 C 121.025564 246.099197 282.388554 164.090641 363.050816 123.047897 " stroke="#5e2bff" stroke-width="4.5" stroke-opacity="1" stroke-miterlimit="4"/><path stroke-linecap="round" transform="matrix(0.101552, 0, 0, 0.101552, 13.576811, 10.508158)" fill="none" stroke-linejoin="miter" d="M 363.050816 123.047897 C 443.751543 82.043619 522.64439 9.151398 605.114533 -0.0034032 " stroke="#5e2bff" stroke-width="4.5" stroke-opacity="1" stroke-miterlimit="4"/><path stroke-linecap="round" transform="matrix(0.101552, 0, 0, 0.101552, 13.576811, 10.508158)" fill="none" stroke-linejoin="miter" d="M 605.114533 -0.0034032 C 684.161242 -8.773549 847.139785 61.54148 847.139785 61.54148 " stroke="#5e2bff" stroke-width="4.5" stroke-opacity="1" stroke-miterlimit="4"/><path fill="#5e2bff" d="M 27.746094 35.5 C 27.746094 35.25 27.699219 35.011719 27.601562 34.78125 C 27.507812 34.550781 27.371094 34.347656 27.195312 34.171875 C 27.019531 33.996094 26.816406 33.859375 26.585938 33.765625 C 26.355469 33.667969 26.117188 33.621094 25.867188 33.621094 C 25.617188 33.621094 25.378906 33.667969 25.148438 33.765625 C 24.917969 33.859375 24.714844 33.996094 24.539062 34.171875 C 24.363281 34.347656 24.226562 34.550781 24.128906 34.78125 C 24.035156 35.011719 23.988281 35.25 23.988281 35.5 C 23.988281 35.75 24.035156 35.988281 24.128906 36.21875 C 24.226562 36.449219 24.363281 36.652344 24.539062 36.828125 C 24.714844 37.003906 24.917969 37.140625 25.148438 37.238281 C 25.378906 37.332031 25.617188 37.378906 25.867188 37.378906 C 26.117188 37.378906 26.355469 37.332031 26.585938 37.238281 C 26.816406 37.140625 27.019531 37.003906 27.195312 36.828125 C 27.371094 36.652344 27.507812 36.449219 27.601562 36.21875 C 27.699219 35.988281 27.746094 35.75 27.746094 35.5 Z M 27.746094 35.5 " fill-opacity="1" fill-rule="nonzero"/><path fill="#5e2bff" d="M 52.324219 23.003906 C 52.324219 22.753906 52.277344 22.515625 52.183594 22.285156 C 52.085938 22.054688 51.949219 21.851562 51.773438 21.675781 C 51.597656 21.5 51.394531 21.363281 51.164062 21.269531 C 50.933594 21.171875 50.695312 21.125 50.445312 21.125 C 50.195312 21.125 49.957031 21.171875 49.726562 21.269531 C 49.496094 21.363281 49.292969 21.5 49.117188 21.675781 C 48.941406 21.851562 48.804688 22.054688 48.710938 22.285156 C 48.613281 22.515625 48.566406 22.753906 48.566406 23.003906 C 48.566406 23.253906 48.613281 23.492188 48.710938 23.722656 C 48.804688 23.953125 48.941406 24.15625 49.117188 24.332031 C 49.292969 24.507812 49.496094 24.644531 49.726562 24.742188 C 49.957031 24.835938 50.195312 24.882812 50.445312 24.882812 C 50.695312 24.882812 50.933594 24.835938 51.164062 24.742188 C 51.394531 24.644531 51.597656 24.507812 51.773438 24.332031 C 51.949219 24.15625 52.085938 23.953125 52.183594 23.722656 C 52.277344 23.492188 52.324219 23.253906 52.324219 23.003906 Z M 52.324219 23.003906 " fill-opacity="1" fill-rule="nonzero"/><path fill="#5e2bff" d="M 76.902344 10.507812 C 76.902344 10.257812 76.855469 10.019531 76.761719 9.789062 C 76.664062 9.558594 76.53125 9.355469 76.355469 9.179688 C 76.179688 9.003906 75.972656 8.867188 75.746094 8.773438 C 75.515625 8.675781 75.273438 8.628906 75.027344 8.628906 C 74.777344 8.628906 74.535156 8.675781 74.304688 8.773438 C 74.078125 8.867188 73.875 9.003906 73.695312 9.179688 C 73.519531 9.355469 73.386719 9.558594 73.289062 9.789062 C 73.195312 10.019531 73.148438 10.257812 73.148438 10.507812 C 73.148438 10.757812 73.195312 10.996094 73.289062 11.226562 C 73.386719 11.457031 73.519531 11.660156 73.695312 11.835938 C 73.875 12.011719 74.078125 12.148438 74.304688 12.242188 C 74.535156 12.339844 74.777344 12.386719 75.027344 12.386719 C 75.273438 12.386719 75.515625 12.339844 75.746094 12.242188 C 75.972656 12.148438 76.179688 12.011719 76.355469 11.835938 C 76.53125 11.660156 76.664062 11.457031 76.761719 11.226562 C 76.855469 10.996094 76.902344 10.757812 76.902344 10.507812 Z M 76.902344 10.507812 " fill-opacity="1" fill-rule="nonzero"/><path fill="#5e2bff" d="M 101.484375 16.757812 C 101.484375 16.507812 101.4375 16.265625 101.339844 16.039062 C 101.246094 15.808594 101.109375 15.605469 100.933594 15.429688 C 100.757812 15.25 100.554688 15.117188 100.324219 15.019531 C 100.09375 14.925781 99.855469 14.878906 99.605469 14.878906 C 99.355469 14.878906 99.117188 14.925781 98.886719 15.019531 C 98.65625 15.117188 98.453125 15.25 98.277344 15.429688 C 98.101562 15.605469 97.964844 15.808594 97.871094 16.039062 C 97.773438 16.265625 97.726562 16.507812 97.726562 16.757812 C 97.726562 17.003906 97.773438 17.246094 97.871094 17.476562 C 97.964844 17.707031 98.101562 17.910156 98.277344 18.085938 C 98.453125 18.261719 98.65625 18.398438 98.886719 18.492188 C 99.117188 18.585938 99.355469 18.636719 99.605469 18.636719 C 99.855469 18.636719 100.09375 18.585938 100.324219 18.492188 C 100.554688 18.398438 100.757812 18.261719 100.933594 18.085938 C 101.109375 17.910156 101.246094 17.707031 101.339844 17.476562 C 101.4375 17.246094 101.484375 17.003906 101.484375 16.757812 Z M 101.484375 16.757812 " fill-opacity="1" fill-rule="nonzero"/><g fill="#000000" fill-opacity="1"><g transform="translate(23.683174, 64.042172)"><g><path d="M 0.109375 0 L 0.109375 -0.1875 L 0.78125 -0.1875 L 0.78125 -1.875 L 1 -1.875 L 1 -0.328125 C 1 -0.210938 0.972656 -0.128906 0.921875 -0.078125 C 0.878906 -0.0234375 0.789062 0 0.65625 0 Z M 0.109375 0 "/></g></g></g><g fill="#000000" fill-opacity="1"><g transform="translate(24.852271, 64.042172)"><g><path d="M 0.625 0.03125 C 0.488281 0.03125 0.375 0 0.28125 -0.0625 C 0.195312 -0.132812 0.15625 -0.238281 0.15625 -0.375 C 0.15625 -0.488281 0.1875 -0.582031 0.25 -0.65625 C 0.320312 -0.726562 0.4375 -0.773438 0.59375 -0.796875 L 0.953125 -0.859375 C 1.023438 -0.867188 1.078125 -0.882812 1.109375 -0.90625 C 1.148438 -0.9375 1.171875 -0.976562 1.171875 -1.03125 C 1.171875 -1.101562 1.144531 -1.160156 1.09375 -1.203125 C 1.050781 -1.253906 0.957031 -1.28125 0.8125 -1.28125 C 0.675781 -1.28125 0.578125 -1.25 0.515625 -1.1875 C 0.460938 -1.132812 0.429688 -1.0625 0.421875 -0.96875 L 0.203125 -0.96875 C 0.203125 -1.125 0.253906 -1.242188 0.359375 -1.328125 C 0.460938 -1.421875 0.613281 -1.46875 0.8125 -1.46875 C 1 -1.46875 1.140625 -1.425781 1.234375 -1.34375 C 1.328125 -1.257812 1.375 -1.15625 1.375 -1.03125 L 1.375 -0.34375 C 1.375 -0.300781 1.375 -0.25 1.375 -0.1875 C 1.375 -0.132812 1.378906 -0.0703125 1.390625 0 L 1.1875 0 C 1.175781 -0.0625 1.164062 -0.117188 1.15625 -0.171875 C 1.15625 -0.222656 1.15625 -0.273438 1.15625 -0.328125 C 1.144531 -0.273438 1.117188 -0.21875 1.078125 -0.15625 C 1.035156 -0.101562 0.976562 -0.0546875 0.90625 -0.015625 C 0.832031 0.015625 0.738281 0.03125 0.625 0.03125 Z M 0.671875 -0.140625 C 0.785156 -0.140625 0.878906 -0.164062 0.953125 -0.21875 C 1.023438 -0.269531 1.078125 -0.332031 1.109375 -0.40625 C 1.148438 -0.488281 1.171875 -0.578125 1.171875 -0.671875 L 1.171875 -0.796875 C 1.128906 -0.765625 1.085938 -0.742188 1.046875 -0.734375 C 1.015625 -0.722656 0.96875 -0.710938 0.90625 -0.703125 L 0.671875 -0.640625 C 0.578125 -0.628906 0.503906 -0.601562 0.453125 -0.5625 C 0.410156 -0.519531 0.390625 -0.457031 0.390625 -0.375 C 0.390625 -0.300781 0.414062 -0.242188 0.46875 -0.203125 C 0.519531 -0.160156 0.585938 -0.140625 0.671875 -0.140625 Z M 0.671875 -0.140625 "/></g></g></g><g fill="#000000" fill-opacity="1"><g transform="translate(26.392198, 64.042172)"><g><path d="M 0.96875 -1.453125 C 1.144531 -1.453125 1.273438 -1.40625 1.359375 -1.3125 C 1.441406 -1.21875 1.484375 -1.082031 1.484375 -0.90625 L 1.484375 0 L 1.25 0 L 1.25 -0.875 C 1.25 -1.03125 1.21875 -1.132812 1.15625 -1.1875 C 1.09375 -1.238281 1.007812 -1.265625 0.90625 -1.265625 C 0.75 -1.265625 0.628906 -1.203125 0.546875 -1.078125 C 0.472656 -0.960938 0.4375 -0.785156 0.4375 -0.546875 L 0.4375 0 L 0.203125 0 L 0.203125 -1.40625 L 0.4375 -1.40625 L 0.4375 -1.046875 C 0.476562 -1.171875 0.539062 -1.269531 0.625 -1.34375 C 0.71875 -1.414062 0.832031 -1.453125 0.96875 -1.453125 Z M 0.96875 -1.453125 "/></g></g></g><g fill="#000000" fill-opacity="1"><g transform="translate(44.544884, 64.042172)"><g><path d="M 1.578125 -1.6875 L 0.421875 -1.6875 L 0.421875 -1.046875 L 1.5 -1.046875 L 1.5 -0.859375 L 0.421875 -0.859375 L 0.421875 0 L 0.1875 0 L 0.1875 -1.875 L 1.578125 -1.875 Z M 1.578125 -1.6875 "/></g></g></g><g fill="#000000" fill-opacity="1"><g transform="translate(46.149897, 64.042172)"><g><path d="M 0.84375 -0.125 C 0.988281 -0.125 1.09375 -0.148438 1.15625 -0.203125 C 1.226562 -0.265625 1.273438 -0.34375 1.296875 -0.4375 L 1.5 -0.4375 C 1.488281 -0.363281 1.460938 -0.289062 1.421875 -0.21875 C 1.378906 -0.144531 1.3125 -0.0820312 1.21875 -0.03125 C 1.125 0.0195312 1 0.046875 0.84375 0.046875 C 0.675781 0.046875 0.539062 0.015625 0.4375 -0.046875 C 0.332031 -0.117188 0.253906 -0.210938 0.203125 -0.328125 C 0.160156 -0.441406 0.140625 -0.566406 0.140625 -0.703125 C 0.140625 -0.847656 0.164062 -0.976562 0.21875 -1.09375 C 0.269531 -1.207031 0.347656 -1.296875 0.453125 -1.359375 C 0.554688 -1.421875 0.6875 -1.453125 0.84375 -1.453125 C 0.976562 -1.453125 1.09375 -1.421875 1.1875 -1.359375 C 1.289062 -1.304688 1.367188 -1.226562 1.421875 -1.125 C 1.472656 -1.019531 1.5 -0.894531 1.5 -0.75 C 1.5 -0.738281 1.5 -0.722656 1.5 -0.703125 C 1.5 -0.691406 1.5 -0.675781 1.5 -0.65625 L 0.359375 -0.65625 C 0.367188 -0.457031 0.414062 -0.316406 0.5 -0.234375 C 0.59375 -0.160156 0.707031 -0.125 0.84375 -0.125 Z M 0.84375 -1.28125 C 0.707031 -1.28125 0.597656 -1.242188 0.515625 -1.171875 C 0.429688 -1.109375 0.378906 -0.992188 0.359375 -0.828125 L 1.28125 -0.828125 C 1.269531 -0.984375 1.222656 -1.097656 1.140625 -1.171875 C 1.066406 -1.242188 0.96875 -1.28125 0.84375 -1.28125 Z M 0.84375 -1.28125 "/></g></g></g><g fill="#000000" fill-opacity="1"><g transform="translate(47.749267, 64.042172)"><g><path d="M 0.96875 -1.453125 C 1.113281 -1.453125 1.234375 -1.421875 1.328125 -1.359375 C 1.421875 -1.296875 1.488281 -1.207031 1.53125 -1.09375 C 1.582031 -0.976562 1.609375 -0.847656 1.609375 -0.703125 C 1.609375 -0.554688 1.582031 -0.425781 1.53125 -0.3125 C 1.488281 -0.207031 1.421875 -0.117188 1.328125 -0.046875 C 1.234375 0.015625 1.113281 0.046875 0.96875 0.046875 C 0.832031 0.046875 0.71875 0.0195312 0.625 -0.03125 C 0.539062 -0.09375 0.472656 -0.171875 0.421875 -0.265625 L 0.421875 0 L 0.203125 0 L 0.203125 -1.984375 L 0.421875 -1.984375 L 0.421875 -1.140625 C 0.472656 -1.242188 0.539062 -1.320312 0.625 -1.375 C 0.71875 -1.425781 0.832031 -1.453125 0.96875 -1.453125 Z M 0.921875 -0.140625 C 1.078125 -0.140625 1.191406 -0.1875 1.265625 -0.28125 C 1.335938 -0.375 1.375 -0.515625 1.375 -0.703125 C 1.375 -0.898438 1.335938 -1.046875 1.265625 -1.140625 C 1.191406 -1.234375 1.078125 -1.28125 0.921875 -1.28125 C 0.765625 -1.28125 0.640625 -1.234375 0.546875 -1.140625 C 0.460938 -1.046875 0.421875 -0.898438 0.421875 -0.703125 C 0.421875 -0.503906 0.460938 -0.359375 0.546875 -0.265625 C 0.640625 -0.179688 0.765625 -0.140625 0.921875 -0.140625 Z M 0.921875 -0.140625 "/></g></g></g><g fill="#000000" fill-opacity="1"><g transform="translate(49.470361, 64.042172)"><g><path d="M 0.953125 -1.4375 L 1 -1.4375 L 1 -1.203125 L 0.9375 -1.203125 C 0.800781 -1.210938 0.695312 -1.1875 0.625 -1.125 C 0.550781 -1.0625 0.5 -0.976562 0.46875 -0.875 C 0.445312 -0.769531 0.4375 -0.648438 0.4375 -0.515625 L 0.4375 0 L 0.203125 0 L 0.203125 -1.40625 L 0.4375 -1.40625 L 0.4375 -1.046875 C 0.476562 -1.160156 0.539062 -1.253906 0.625 -1.328125 C 0.707031 -1.398438 0.816406 -1.4375 0.953125 -1.4375 Z M 0.953125 -1.4375 "/></g></g></g><g fill="#000000" fill-opacity="1"><g transform="translate(50.554539, 64.042172)"><g><path d="M 1.21875 -1.40625 L 1.453125 -1.40625 L 1.453125 0 L 1.21875 0 L 1.21875 -0.359375 C 1.175781 -0.234375 1.113281 -0.132812 1.03125 -0.0625 C 0.945312 0.0078125 0.835938 0.046875 0.703125 0.046875 C 0.523438 0.046875 0.390625 0 0.296875 -0.09375 C 0.210938 -0.1875 0.171875 -0.328125 0.171875 -0.515625 L 0.171875 -1.40625 L 0.40625 -1.40625 L 0.40625 -0.53125 C 0.40625 -0.425781 0.414062 -0.34375 0.4375 -0.28125 C 0.46875 -0.226562 0.507812 -0.191406 0.5625 -0.171875 C 0.625 -0.148438 0.691406 -0.140625 0.765625 -0.140625 C 0.910156 -0.140625 1.019531 -0.203125 1.09375 -0.328125 C 1.175781 -0.453125 1.21875 -0.632812 1.21875 -0.875 Z M 1.21875 -1.40625 "/></g></g></g><g fill="#000000" fill-opacity="1"><g transform="translate(52.162399, 64.042172)"><g><path d="M 0.625 0.03125 C 0.488281 0.03125 0.375 0 0.28125 -0.0625 C 0.195312 -0.132812 0.15625 -0.238281 0.15625 -0.375 C 0.15625 -0.488281 0.1875 -0.582031 0.25 -0.65625 C 0.320312 -0.726562 0.4375 -0.773438 0.59375 -0.796875 L 0.953125 -0.859375 C 1.023438 -0.867188 1.078125 -0.882812 1.109375 -0.90625 C 1.148438 -0.9375 1.171875 -0.976562 1.171875 -1.03125 C 1.171875 -1.101562 1.144531 -1.160156 1.09375 -1.203125 C 1.050781 -1.253906 0.957031 -1.28125 0.8125 -1.28125 C 0.675781 -1.28125 0.578125 -1.25 0.515625 -1.1875 C 0.460938 -1.132812 0.429688 -1.0625 0.421875 -0.96875 L 0.203125 -0.96875 C 0.203125 -1.125 0.253906 -1.242188 0.359375 -1.328125 C 0.460938 -1.421875 0.613281 -1.46875 0.8125 -1.46875 C 1 -1.46875 1.140625 -1.425781 1.234375 -1.34375 C 1.328125 -1.257812 1.375 -1.15625 1.375 -1.03125 L 1.375 -0.34375 C 1.375 -0.300781 1.375 -0.25 1.375 -0.1875 C 1.375 -0.132812 1.378906 -0.0703125 1.390625 0 L 1.1875 0 C 1.175781 -0.0625 1.164062 -0.117188 1.15625 -0.171875 C 1.15625 -0.222656 1.15625 -0.273438 1.15625 -0.328125 C 1.144531 -0.273438 1.117188 -0.21875 1.078125 -0.15625 C 1.035156 -0.101562 0.976562 -0.0546875 0.90625 -0.015625 C 0.832031 0.015625 0.738281 0.03125 0.625 0.03125 Z M 0.671875 -0.140625 C 0.785156 -0.140625 0.878906 -0.164062 0.953125 -0.21875 C 1.023438 -0.269531 1.078125 -0.332031 1.109375 -0.40625 C 1.148438 -0.488281 1.171875 -0.578125 1.171875 -0.671875 L 1.171875 -0.796875 C 1.128906 -0.765625 1.085938 -0.742188 1.046875 -0.734375 C 1.015625 -0.722656 0.96875 -0.710938 0.90625 -0.703125 L 0.671875 -0.640625 C 0.578125 -0.628906 0.503906 -0.601562 0.453125 -0.5625 C 0.410156 -0.519531 0.390625 -0.457031 0.390625 -0.375 C 0.390625 -0.300781 0.414062 -0.242188 0.46875 -0.203125 C 0.519531 -0.160156 0.585938 -0.140625 0.671875 -0.140625 Z M 0.671875 -0.140625 "/></g></g></g><g fill="#000000" fill-opacity="1"><g transform="translate(53.702326, 64.042172)"><g><path d="M 0.953125 -1.4375 L 1 -1.4375 L 1 -1.203125 L 0.9375 -1.203125 C 0.800781 -1.210938 0.695312 -1.1875 0.625 -1.125 C 0.550781 -1.0625 0.5 -0.976562 0.46875 -0.875 C 0.445312 -0.769531 0.4375 -0.648438 0.4375 -0.515625 L 0.4375 0 L 0.203125 0 L 0.203125 -1.40625 L 0.4375 -1.40625 L 0.4375 -1.046875 C 0.476562 -1.160156 0.539062 -1.253906 0.625 -1.328125 C 0.707031 -1.398438 0.816406 -1.4375 0.953125 -1.4375 Z M 0.953125 -1.4375 "/></g></g></g><g fill="#000000" fill-opacity="1"><g transform="translate(54.772348, 64.042172)"><g><path d="M 1.28125 -1.40625 L 1.5 -1.40625 L 0.84375 0.234375 C 0.8125 0.304688 0.78125 0.367188 0.75 0.421875 C 0.71875 0.472656 0.675781 0.507812 0.625 0.53125 C 0.582031 0.550781 0.519531 0.5625 0.4375 0.5625 L 0.171875 0.5625 L 0.171875 0.375 L 0.5625 0.375 L 0.71875 0 L 0.640625 0 L 0.078125 -1.40625 L 0.3125 -1.40625 L 0.75 -0.328125 L 0.796875 -0.1875 L 0.84375 -0.328125 Z M 1.28125 -1.40625 "/></g></g></g><g fill="#000000" fill-opacity="1"><g transform="translate(70.918956, 64.042172)"><g><path d="M 2.25 -1.875 L 2.25 0 L 2.015625 0 L 2.015625 -1.703125 L 1.375 0 L 1.0625 0 L 0.421875 -1.703125 L 0.421875 0 L 0.1875 0 L 0.1875 -1.875 L 0.609375 -1.875 L 1.21875 -0.21875 L 1.84375 -1.875 Z M 2.25 -1.875 "/></g></g></g><g fill="#000000" fill-opacity="1"><g transform="translate(73.339247, 64.042172)"><g><path d="M 0.625 0.03125 C 0.488281 0.03125 0.375 0 0.28125 -0.0625 C 0.195312 -0.132812 0.15625 -0.238281 0.15625 -0.375 C 0.15625 -0.488281 0.1875 -0.582031 0.25 -0.65625 C 0.320312 -0.726562 0.4375 -0.773438 0.59375 -0.796875 L 0.953125 -0.859375 C 1.023438 -0.867188 1.078125 -0.882812 1.109375 -0.90625 C 1.148438 -0.9375 1.171875 -0.976562 1.171875 -1.03125 C 1.171875 -1.101562 1.144531 -1.160156 1.09375 -1.203125 C 1.050781 -1.253906 0.957031 -1.28125 0.8125 -1.28125 C 0.675781 -1.28125 0.578125 -1.25 0.515625 -1.1875 C 0.460938 -1.132812 0.429688 -1.0625 0.421875 -0.96875 L 0.203125 -0.96875 C 0.203125 -1.125 0.253906 -1.242188 0.359375 -1.328125 C 0.460938 -1.421875 0.613281 -1.46875 0.8125 -1.46875 C 1 -1.46875 1.140625 -1.425781 1.234375 -1.34375 C 1.328125 -1.257812 1.375 -1.15625 1.375 -1.03125 L 1.375 -0.34375 C 1.375 -0.300781 1.375 -0.25 1.375 -0.1875 C 1.375 -0.132812 1.378906 -0.0703125 1.390625 0 L 1.1875 0 C 1.175781 -0.0625 1.164062 -0.117188 1.15625 -0.171875 C 1.15625 -0.222656 1.15625 -0.273438 1.15625 -0.328125 C 1.144531 -0.273438 1.117188 -0.21875 1.078125 -0.15625 C 1.035156 -0.101562 0.976562 -0.0546875 0.90625 -0.015625 C 0.832031 0.015625 0.738281 0.03125 0.625 0.03125 Z M 0.671875 -0.140625 C 0.785156 -0.140625 0.878906 -0.164062 0.953125 -0.21875 C 1.023438 -0.269531 1.078125 -0.332031 1.109375 -0.40625 C 1.148438 -0.488281 1.171875 -0.578125 1.171875 -0.671875 L 1.171875 -0.796875 C 1.128906 -0.765625 1.085938 -0.742188 1.046875 -0.734375 C 1.015625 -0.722656 0.96875 -0.710938 0.90625 -0.703125 L 0.671875 -0.640625 C 0.578125 -0.628906 0.503906 -0.601562 0.453125 -0.5625 C 0.410156 -0.519531 0.390625 -0.457031 0.390625 -0.375 C 0.390625 -0.300781 0.414062 -0.242188 0.46875 -0.203125 C 0.519531 -0.160156 0.585938 -0.140625 0.671875 -0.140625 Z M 0.671875 -0.140625 "/></g></g></g><g fill="#000000" fill-opacity="1"><g transform="translate(74.879174, 64.042172)"><g><path d="M 0.953125 -1.4375 L 1 -1.4375 L 1 -1.203125 L 0.9375 -1.203125 C 0.800781 -1.210938 0.695312 -1.1875 0.625 -1.125 C 0.550781 -1.0625 0.5 -0.976562 0.46875 -0.875 C 0.445312 -0.769531 0.4375 -0.648438 0.4375 -0.515625 L 0.4375 0 L 0.203125 0 L 0.203125 -1.40625 L 0.4375 -1.40625 L 0.4375 -1.046875 C 0.476562 -1.160156 0.539062 -1.253906 0.625 -1.328125 C 0.707031 -1.398438 0.816406 -1.4375 0.953125 -1.4375 Z M 0.953125 -1.4375 "/></g></g></g><g fill="#000000" fill-opacity="1"><g transform="translate(75.878413, 64.042172)"><g><path d="M 0.140625 -0.703125 C 0.140625 -0.847656 0.164062 -0.976562 0.21875 -1.09375 C 0.269531 -1.207031 0.347656 -1.296875 0.453125 -1.359375 C 0.554688 -1.421875 0.6875 -1.453125 0.84375 -1.453125 C 1.050781 -1.453125 1.207031 -1.398438 1.3125 -1.296875 C 1.425781 -1.191406 1.488281 -1.054688 1.5 -0.890625 L 1.296875 -0.890625 C 1.273438 -1.015625 1.226562 -1.109375 1.15625 -1.171875 C 1.082031 -1.242188 0.976562 -1.28125 0.84375 -1.28125 C 0.695312 -1.28125 0.578125 -1.234375 0.484375 -1.140625 C 0.398438 -1.054688 0.359375 -0.910156 0.359375 -0.703125 C 0.359375 -0.503906 0.398438 -0.359375 0.484375 -0.265625 C 0.578125 -0.179688 0.695312 -0.140625 0.84375 -0.140625 C 0.988281 -0.140625 1.097656 -0.175781 1.171875 -0.25 C 1.242188 -0.320312 1.285156 -0.421875 1.296875 -0.546875 L 1.515625 -0.546875 C 1.515625 -0.429688 1.488281 -0.328125 1.4375 -0.234375 C 1.382812 -0.148438 1.304688 -0.0820312 1.203125 -0.03125 C 1.109375 0.0195312 0.988281 0.046875 0.84375 0.046875 C 0.6875 0.046875 0.554688 0.015625 0.453125 -0.046875 C 0.347656 -0.117188 0.269531 -0.207031 0.21875 -0.3125 C 0.164062 -0.425781 0.140625 -0.554688 0.140625 -0.703125 Z M 0.140625 -0.703125 "/></g></g></g><g fill="#000000" fill-opacity="1"><g transform="translate(77.472119, 64.042172)"><g><path d="M 0.96875 -1.453125 C 1.144531 -1.453125 1.273438 -1.40625 1.359375 -1.3125 C 1.441406 -1.21875 1.484375 -1.082031 1.484375 -0.90625 L 1.484375 0 L 1.25 0 L 1.25 -0.875 C 1.25 -1.03125 1.21875 -1.132812 1.15625 -1.1875 C 1.09375 -1.238281 1.007812 -1.265625 0.90625 -1.265625 C 0.75 -1.265625 0.628906 -1.203125 0.546875 -1.078125 C 0.472656 -0.960938 0.4375 -0.785156 0.4375 -0.546875 L 0.4375 0 L 0.203125 0 L 0.203125 -1.984375 L 0.4375 -1.984375 L 0.4375 -1.046875 C 0.476562 -1.171875 0.539062 -1.269531 0.625 -1.34375 C 0.71875 -1.414062 0.832031 -1.453125 0.96875 -1.453125 Z M 0.96875 -1.453125 "/></g></g></g><g fill="#000000" fill-opacity="1"><g transform="translate(96.632941, 64.042172)"><g><path d="M 1.640625 0 L 1.453125 -0.484375 L 0.515625 -0.484375 L 0.34375 0 L 0.109375 0 L 0.8125 -1.875 L 1.171875 -1.875 L 1.875 0 Z M 0.59375 -0.671875 L 1.390625 -0.671875 L 0.984375 -1.71875 Z M 0.59375 -0.671875 "/></g></g></g><g fill="#000000" fill-opacity="1"><g transform="translate(98.552182, 64.042172)"><g><path d="M 0.96875 -1.453125 C 1.113281 -1.453125 1.234375 -1.421875 1.328125 -1.359375 C 1.421875 -1.296875 1.488281 -1.207031 1.53125 -1.09375 C 1.582031 -0.976562 1.609375 -0.847656 1.609375 -0.703125 C 1.609375 -0.554688 1.582031 -0.425781 1.53125 -0.3125 C 1.488281 -0.207031 1.421875 -0.117188 1.328125 -0.046875 C 1.234375 0.015625 1.113281 0.046875 0.96875 0.046875 C 0.832031 0.046875 0.71875 0.0195312 0.625 -0.03125 C 0.539062 -0.09375 0.472656 -0.171875 0.421875 -0.265625 L 0.421875 0.5625 L 0.203125 0.5625 L 0.203125 -1.40625 L 0.421875 -1.40625 L 0.421875 -1.140625 C 0.472656 -1.242188 0.539062 -1.320312 0.625 -1.375 C 0.71875 -1.425781 0.832031 -1.453125 0.96875 -1.453125 Z M 0.921875 -0.140625 C 1.078125 -0.140625 1.191406 -0.1875 1.265625 -0.28125 C 1.335938 -0.375 1.375 -0.515625 1.375 -0.703125 C 1.375 -0.898438 1.335938 -1.046875 1.265625 -1.140625 C 1.191406 -1.234375 1.078125 -1.28125 0.921875 -1.28125 C 0.765625 -1.28125 0.640625 -1.234375 0.546875 -1.140625 C 0.460938 -1.046875 0.421875 -0.898438 0.421875 -0.703125 C 0.421875 -0.503906 0.460938 -0.359375 0.546875 -0.265625 C 0.640625 -0.179688 0.765625 -0.140625 0.921875 -0.140625 Z M 0.921875 -0.140625 "/></g></g></g><g fill="#000000" fill-opacity="1"><g transform="translate(100.273276, 64.042172)"><g><path d="M 0.953125 -1.4375 L 1 -1.4375 L 1 -1.203125 L 0.9375 -1.203125 C 0.800781 -1.210938 0.695312 -1.1875 0.625 -1.125 C 0.550781 -1.0625 0.5 -0.976562 0.46875 -0.875 C 0.445312 -0.769531 0.4375 -0.648438 0.4375 -0.515625 L 0.4375 0 L 0.203125 0 L 0.203125 -1.40625 L 0.4375 -1.40625 L 0.4375 -1.046875 C 0.476562 -1.160156 0.539062 -1.253906 0.625 -1.328125 C 0.707031 -1.398438 0.816406 -1.4375 0.953125 -1.4375 Z M 0.953125 -1.4375 "/></g></g></g><g fill="#000000" fill-opacity="1"><g transform="translate(101.309322, 64.042172)"><g><path d="M 0.171875 -1.640625 L 0.171875 -1.875 L 0.46875 -1.875 L 0.46875 -1.640625 Z M 0.203125 0 L 0.203125 -1.40625 L 0.4375 -1.40625 L 0.4375 0 Z M 0.203125 0 "/></g></g></g><g fill="#000000" fill-opacity="1"><g transform="translate(101.943409, 64.042172)"><g><path d="M 0.203125 0 L 0.203125 -1.984375 L 0.4375 -1.984375 L 0.4375 0 Z M 0.203125 0 "/></g></g></g><g fill="#000000" fill-opacity="1"><g transform="translate(9.632599, 61.50921)"><g><path d="M 0.984375 0.046875 C 0.785156 0.046875 0.625 0.00390625 0.5 -0.078125 C 0.375 -0.160156 0.28125 -0.273438 0.21875 -0.421875 C 0.164062 -0.578125 0.140625 -0.75 0.140625 -0.9375 C 0.140625 -1.125 0.164062 -1.289062 0.21875 -1.4375 C 0.28125 -1.59375 0.375 -1.710938 0.5 -1.796875 C 0.625 -1.890625 0.785156 -1.9375 0.984375 -1.9375 C 1.171875 -1.9375 1.328125 -1.890625 1.453125 -1.796875 C 1.578125 -1.710938 1.671875 -1.59375 1.734375 -1.4375 C 1.796875 -1.289062 1.828125 -1.125 1.828125 -0.9375 C 1.828125 -0.75 1.796875 -0.582031 1.734375 -0.4375 C 1.671875 -0.289062 1.578125 -0.171875 1.453125 -0.078125 C 1.328125 0.00390625 1.171875 0.046875 0.984375 0.046875 Z M 0.375 -0.9375 C 0.375 -0.675781 0.421875 -0.476562 0.515625 -0.34375 C 0.617188 -0.207031 0.773438 -0.140625 0.984375 -0.140625 C 1.191406 -0.140625 1.34375 -0.207031 1.4375 -0.34375 C 1.53125 -0.476562 1.578125 -0.675781 1.578125 -0.9375 C 1.578125 -1.207031 1.53125 -1.40625 1.4375 -1.53125 C 1.34375 -1.664062 1.191406 -1.734375 0.984375 -1.734375 C 0.773438 -1.734375 0.617188 -1.664062 0.515625 -1.53125 C 0.421875 -1.40625 0.375 -1.207031 0.375 -0.9375 Z M 0.375 -0.9375 "/></g></g></g><g fill="#000000" fill-opacity="1"><g transform="translate(7.942712, 49.012827)"><g><path d="M 0.984375 -1.25 C 1.191406 -1.25 1.351562 -1.191406 1.46875 -1.078125 C 1.582031 -0.972656 1.640625 -0.816406 1.640625 -0.609375 C 1.640625 -0.492188 1.613281 -0.382812 1.5625 -0.28125 C 1.519531 -0.175781 1.441406 -0.09375 1.328125 -0.03125 C 1.222656 0.0195312 1.078125 0.046875 0.890625 0.046875 C 0.640625 0.046875 0.453125 -0.00390625 0.328125 -0.109375 C 0.210938 -0.222656 0.148438 -0.363281 0.140625 -0.53125 L 0.390625 -0.53125 C 0.398438 -0.414062 0.441406 -0.320312 0.515625 -0.25 C 0.585938 -0.175781 0.710938 -0.140625 0.890625 -0.140625 C 1.066406 -0.140625 1.195312 -0.179688 1.28125 -0.265625 C 1.363281 -0.359375 1.40625 -0.472656 1.40625 -0.609375 C 1.40625 -0.765625 1.363281 -0.878906 1.28125 -0.953125 C 1.195312 -1.035156 1.082031 -1.078125 0.9375 -1.078125 C 0.832031 -1.078125 0.738281 -1.054688 0.65625 -1.015625 C 0.570312 -0.972656 0.5 -0.914062 0.4375 -0.84375 L 0.21875 -0.84375 L 0.28125 -1.875 L 1.5625 -1.875 L 1.5625 -1.6875 L 0.484375 -1.6875 L 0.4375 -1.03125 C 0.5 -1.09375 0.570312 -1.144531 0.65625 -1.1875 C 0.75 -1.226562 0.859375 -1.25 0.984375 -1.25 Z M 0.984375 -1.25 "/></g></g></g><g fill="#000000" fill-opacity="1"><g transform="translate(9.694942, 49.012827)"><g><path d="M 0.984375 0.046875 C 0.785156 0.046875 0.625 0.00390625 0.5 -0.078125 C 0.375 -0.160156 0.28125 -0.273438 0.21875 -0.421875 C 0.164062 -0.578125 0.140625 -0.75 0.140625 -0.9375 C 0.140625 -1.125 0.164062 -1.289062 0.21875 -1.4375 C 0.28125 -1.59375 0.375 -1.710938 0.5 -1.796875 C 0.625 -1.890625 0.785156 -1.9375 0.984375 -1.9375 C 1.171875 -1.9375 1.328125 -1.890625 1.453125 -1.796875 C 1.578125 -1.710938 1.671875 -1.59375 1.734375 -1.4375 C 1.796875 -1.289062 1.828125 -1.125 1.828125 -0.9375 C 1.828125 -0.75 1.796875 -0.582031 1.734375 -0.4375 C 1.671875 -0.289062 1.578125 -0.171875 1.453125 -0.078125 C 1.328125 0.00390625 1.171875 0.046875 0.984375 0.046875 Z M 0.375 -0.9375 C 0.375 -0.675781 0.421875 -0.476562 0.515625 -0.34375 C 0.617188 -0.207031 0.773438 -0.140625 0.984375 -0.140625 C 1.191406 -0.140625 1.34375 -0.207031 1.4375 -0.34375 C 1.53125 -0.476562 1.578125 -0.675781 1.578125 -0.9375 C 1.578125 -1.207031 1.53125 -1.40625 1.4375 -1.53125 C 1.34375 -1.664062 1.191406 -1.734375 0.984375 -1.734375 C 0.773438 -1.734375 0.617188 -1.664062 0.515625 -1.53125 C 0.421875 -1.40625 0.375 -1.207031 0.375 -0.9375 Z M 0.375 -0.9375 "/></g></g></g><g fill="#000000" fill-opacity="1"><g transform="translate(6.414673, 36.516446)"><g><path d="M 0.171875 0 L 0.171875 -0.1875 L 0.609375 -0.1875 L 0.609375 -1.6875 L 0.171875 -1.6875 L 0.171875 -1.875 L 0.578125 -1.875 C 0.679688 -1.875 0.75 -1.851562 0.78125 -1.8125 C 0.820312 -1.78125 0.84375 -1.722656 0.84375 -1.640625 L 0.84375 -0.1875 L 1.25 -0.1875 L 1.25 0 Z M 0.171875 0 "/></g></g></g><g fill="#000000" fill-opacity="1"><g transform="translate(7.643202, 36.516446)"><g><path d="M 0.984375 0.046875 C 0.785156 0.046875 0.625 0.00390625 0.5 -0.078125 C 0.375 -0.160156 0.28125 -0.273438 0.21875 -0.421875 C 0.164062 -0.578125 0.140625 -0.75 0.140625 -0.9375 C 0.140625 -1.125 0.164062 -1.289062 0.21875 -1.4375 C 0.28125 -1.59375 0.375 -1.710938 0.5 -1.796875 C 0.625 -1.890625 0.785156 -1.9375 0.984375 -1.9375 C 1.171875 -1.9375 1.328125 -1.890625 1.453125 -1.796875 C 1.578125 -1.710938 1.671875 -1.59375 1.734375 -1.4375 C 1.796875 -1.289062 1.828125 -1.125 1.828125 -0.9375 C 1.828125 -0.75 1.796875 -0.582031 1.734375 -0.4375 C 1.671875 -0.289062 1.578125 -0.171875 1.453125 -0.078125 C 1.328125 0.00390625 1.171875 0.046875 0.984375 0.046875 Z M 0.375 -0.9375 C 0.375 -0.675781 0.421875 -0.476562 0.515625 -0.34375 C 0.617188 -0.207031 0.773438 -0.140625 0.984375 -0.140625 C 1.191406 -0.140625 1.34375 -0.207031 1.4375 -0.34375 C 1.53125 -0.476562 1.578125 -0.675781 1.578125 -0.9375 C 1.578125 -1.207031 1.53125 -1.40625 1.4375 -1.53125 C 1.34375 -1.664062 1.191406 -1.734375 0.984375 -1.734375 C 0.773438 -1.734375 0.617188 -1.664062 0.515625 -1.53125 C 0.421875 -1.40625 0.375 -1.207031 0.375 -0.9375 Z M 0.375 -0.9375 "/></g></g></g><g fill="#000000" fill-opacity="1"><g transform="translate(9.599252, 36.516446)"><g><path d="M 0.984375 0.046875 C 0.785156 0.046875 0.625 0.00390625 0.5 -0.078125 C 0.375 -0.160156 0.28125 -0.273438 0.21875 -0.421875 C 0.164062 -0.578125 0.140625 -0.75 0.140625 -0.9375 C 0.140625 -1.125 0.164062 -1.289062 0.21875 -1.4375 C 0.28125 -1.59375 0.375 -1.710938 0.5 -1.796875 C 0.625 -1.890625 0.785156 -1.9375 0.984375 -1.9375 C 1.171875 -1.9375 1.328125 -1.890625 1.453125 -1.796875 C 1.578125 -1.710938 1.671875 -1.59375 1.734375 -1.4375 C 1.796875 -1.289062 1.828125 -1.125 1.828125 -0.9375 C 1.828125 -0.75 1.796875 -0.582031 1.734375 -0.4375 C 1.671875 -0.289062 1.578125 -0.171875 1.453125 -0.078125 C 1.328125 0.00390625 1.171875 0.046875 0.984375 0.046875 Z M 0.375 -0.9375 C 0.375 -0.675781 0.421875 -0.476562 0.515625 -0.34375 C 0.617188 -0.207031 0.773438 -0.140625 0.984375 -0.140625 C 1.191406 -0.140625 1.34375 -0.207031 1.4375 -0.34375 C 1.53125 -0.476562 1.578125 -0.675781 1.578125 -0.9375 C 1.578125 -1.207031 1.53125 -1.40625 1.4375 -1.53125 C 1.34375 -1.664062 1.191406 -1.734375 0.984375 -1.734375 C 0.773438 -1.734375 0.617188 -1.664062 0.515625 -1.53125 C 0.421875 -1.40625 0.375 -1.207031 0.375 -0.9375 Z M 0.375 -0.9375 "/></g></g></g><g fill="#000000" fill-opacity="1"><g transform="translate(6.597149, 24.02006)"><g><path d="M 0.171875 0 L 0.171875 -0.1875 L 0.609375 -0.1875 L 0.609375 -1.6875 L 0.171875 -1.6875 L 0.171875 -1.875 L 0.578125 -1.875 C 0.679688 -1.875 0.75 -1.851562 0.78125 -1.8125 C 0.820312 -1.78125 0.84375 -1.722656 0.84375 -1.640625 L 0.84375 -0.1875 L 1.25 -0.1875 L 1.25 0 Z M 0.171875 0 "/></g></g></g><g fill="#000000" fill-opacity="1"><g transform="translate(7.868147, 24.02006)"><g><path d="M 0.984375 -1.25 C 1.191406 -1.25 1.351562 -1.191406 1.46875 -1.078125 C 1.582031 -0.972656 1.640625 -0.816406 1.640625 -0.609375 C 1.640625 -0.492188 1.613281 -0.382812 1.5625 -0.28125 C 1.519531 -0.175781 1.441406 -0.09375 1.328125 -0.03125 C 1.222656 0.0195312 1.078125 0.046875 0.890625 0.046875 C 0.640625 0.046875 0.453125 -0.00390625 0.328125 -0.109375 C 0.210938 -0.222656 0.148438 -0.363281 0.140625 -0.53125 L 0.390625 -0.53125 C 0.398438 -0.414062 0.441406 -0.320312 0.515625 -0.25 C 0.585938 -0.175781 0.710938 -0.140625 0.890625 -0.140625 C 1.066406 -0.140625 1.195312 -0.179688 1.28125 -0.265625 C 1.363281 -0.359375 1.40625 -0.472656 1.40625 -0.609375 C 1.40625 -0.765625 1.363281 -0.878906 1.28125 -0.953125 C 1.195312 -1.035156 1.082031 -1.078125 0.9375 -1.078125 C 0.832031 -1.078125 0.738281 -1.054688 0.65625 -1.015625 C 0.570312 -0.972656 0.5 -0.914062 0.4375 -0.84375 L 0.21875 -0.84375 L 0.28125 -1.875 L 1.5625 -1.875 L 1.5625 -1.6875 L 0.484375 -1.6875 L 0.4375 -1.03125 C 0.5 -1.09375 0.570312 -1.144531 0.65625 -1.1875 C 0.75 -1.226562 0.859375 -1.25 0.984375 -1.25 Z M 0.984375 -1.25 "/></g></g></g><g fill="#000000" fill-opacity="1"><g transform="translate(9.620377, 24.02006)"><g><path d="M 0.984375 0.046875 C 0.785156 0.046875 0.625 0.00390625 0.5 -0.078125 C 0.375 -0.160156 0.28125 -0.273438 0.21875 -0.421875 C 0.164062 -0.578125 0.140625 -0.75 0.140625 -0.9375 C 0.140625 -1.125 0.164062 -1.289062 0.21875 -1.4375 C 0.28125 -1.59375 0.375 -1.710938 0.5 -1.796875 C 0.625 -1.890625 0.785156 -1.9375 0.984375 -1.9375 C 1.171875 -1.9375 1.328125 -1.890625 1.453125 -1.796875 C 1.578125 -1.710938 1.671875 -1.59375 1.734375 -1.4375 C 1.796875 -1.289062 1.828125 -1.125 1.828125 -0.9375 C 1.828125 -0.75 1.796875 -0.582031 1.734375 -0.4375 C 1.671875 -0.289062 1.578125 -0.171875 1.453125 -0.078125 C 1.328125 0.00390625 1.171875 0.046875 0.984375 0.046875 Z M 0.375 -0.9375 C 0.375 -0.675781 0.421875 -0.476562 0.515625 -0.34375 C 0.617188 -0.207031 0.773438 -0.140625 0.984375 -0.140625 C 1.191406 -0.140625 1.34375 -0.207031 1.4375 -0.34375 C 1.53125 -0.476562 1.578125 -0.675781 1.578125 -0.9375 C 1.578125 -1.207031 1.53125 -1.40625 1.4375 -1.53125 C 1.34375 -1.664062 1.191406 -1.734375 0.984375 -1.734375 C 0.773438 -1.734375 0.617188 -1.664062 0.515625 -1.53125 C 0.421875 -1.40625 0.375 -1.207031 0.375 -0.9375 Z M 0.375 -0.9375 "/></g></g></g><g fill="#000000" fill-opacity="1"><g transform="translate(5.946582, 11.523677)"><g><path d="M 0.1875 0 L 0.1875 -0.1875 L 1.125 -0.96875 C 1.21875 -1.050781 1.28125 -1.125 1.3125 -1.1875 C 1.34375 -1.25 1.359375 -1.320312 1.359375 -1.40625 C 1.359375 -1.5 1.328125 -1.578125 1.265625 -1.640625 C 1.203125 -1.703125 1.101562 -1.734375 0.96875 -1.734375 C 0.78125 -1.734375 0.644531 -1.679688 0.5625 -1.578125 C 0.476562 -1.472656 0.429688 -1.328125 0.421875 -1.140625 L 0.1875 -1.140625 C 0.1875 -1.273438 0.210938 -1.40625 0.265625 -1.53125 C 0.316406 -1.65625 0.394531 -1.753906 0.5 -1.828125 C 0.613281 -1.898438 0.765625 -1.9375 0.953125 -1.9375 C 1.117188 -1.9375 1.25 -1.910156 1.34375 -1.859375 C 1.4375 -1.804688 1.503906 -1.738281 1.546875 -1.65625 C 1.585938 -1.582031 1.609375 -1.5 1.609375 -1.40625 C 1.609375 -1.320312 1.59375 -1.242188 1.5625 -1.171875 C 1.53125 -1.097656 1.476562 -1.023438 1.40625 -0.953125 C 1.34375 -0.890625 1.257812 -0.8125 1.15625 -0.71875 L 0.515625 -0.1875 L 1.640625 -0.1875 L 1.640625 0 Z M 0.1875 0 "/></g></g></g><g fill="#000000" fill-opacity="1"><g transform="translate(7.704473, 11.523677)"><g><path d="M 0.984375 0.046875 C 0.785156 0.046875 0.625 0.00390625 0.5 -0.078125 C 0.375 -0.160156 0.28125 -0.273438 0.21875 -0.421875 C 0.164062 -0.578125 0.140625 -0.75 0.140625 -0.9375 C 0.140625 -1.125 0.164062 -1.289062 0.21875 -1.4375 C 0.28125 -1.59375 0.375 -1.710938 0.5 -1.796875 C 0.625 -1.890625 0.785156 -1.9375 0.984375 -1.9375 C 1.171875 -1.9375 1.328125 -1.890625 1.453125 -1.796875 C 1.578125 -1.710938 1.671875 -1.59375 1.734375 -1.4375 C 1.796875 -1.289062 1.828125 -1.125 1.828125 -0.9375 C 1.828125 -0.75 1.796875 -0.582031 1.734375 -0.4375 C 1.671875 -0.289062 1.578125 -0.171875 1.453125 -0.078125 C 1.328125 0.00390625 1.171875 0.046875 0.984375 0.046875 Z M 0.375 -0.9375 C 0.375 -0.675781 0.421875 -0.476562 0.515625 -0.34375 C 0.617188 -0.207031 0.773438 -0.140625 0.984375 -0.140625 C 1.191406 -0.140625 1.34375 -0.207031 1.4375 -0.34375 C 1.53125 -0.476562 1.578125 -0.675781 1.578125 -0.9375 C 1.578125 -1.207031 1.53125 -1.40625 1.4375 -1.53125 C 1.34375 -1.664062 1.191406 -1.734375 0.984375 -1.734375 C 0.773438 -1.734375 0.617188 -1.664062 0.515625 -1.53125 C 0.421875 -1.40625 0.375 -1.207031 0.375 -0.9375 Z M 0.375 -0.9375 "/></g></g></g><g fill="#000000" fill-opacity="1"><g transform="translate(9.660523, 11.523677)"><g><path d="M 0.984375 0.046875 C 0.785156 0.046875 0.625 0.00390625 0.5 -0.078125 C 0.375 -0.160156 0.28125 -0.273438 0.21875 -0.421875 C 0.164062 -0.578125 0.140625 -0.75 0.140625 -0.9375 C 0.140625 -1.125 0.164062 -1.289062 0.21875 -1.4375 C 0.28125 -1.59375 0.375 -1.710938 0.5 -1.796875 C 0.625 -1.890625 0.785156 -1.9375 0.984375 -1.9375 C 1.171875 -1.9375 1.328125 -1.890625 1.453125 -1.796875 C 1.578125 -1.710938 1.671875 -1.59375 1.734375 -1.4375 C 1.796875 -1.289062 1.828125 -1.125 1.828125 -0.9375 C 1.828125 -0.75 1.796875 -0.582031 1.734375 -0.4375 C 1.671875 -0.289062 1.578125 -0.171875 1.453125 -0.078125 C 1.328125 0.00390625 1.171875 0.046875 0.984375 0.046875 Z M 0.375 -0.9375 C 0.375 -0.675781 0.421875 -0.476562 0.515625 -0.34375 C 0.617188 -0.207031 0.773438 -0.140625 0.984375 -0.140625 C 1.191406 -0.140625 1.34375 -0.207031 1.4375 -0.34375 C 1.53125 -0.476562 1.578125 -0.675781 1.578125 -0.9375 C 1.578125 -1.207031 1.53125 -1.40625 1.4375 -1.53125 C 1.34375 -1.664062 1.191406 -1.734375 0.984375 -1.734375 C 0.773438 -1.734375 0.617188 -1.664062 0.515625 -1.53125 C 0.421875 -1.40625 0.375 -1.207031 0.375 -0.9375 Z M 0.375 -0.9375 "/></g></g></g><path stroke-linecap="butt" transform="matrix(0.101552, 0, 0, 0.101552, 13.576811, 10.508158)" fill="none" stroke-linejoin="miter" d="M 0.0129379 492.201797 L 968.152411 492.201797 " stroke="#000000" stroke-width="1" stroke-opacity="0.6" stroke-miterlimit="4"/><path stroke-linecap="butt" transform="matrix(0.101552, 0, 0, 0.101552, 13.576811, 10.508158)" fill="none" stroke-linejoin="miter" d="M 0.0129379 369.150497 L 968.152411 369.150497 " stroke="#000000" stroke-width="1" stroke-opacity="0.251" stroke-miterlimit="4"/><path stroke-linecap="butt" transform="matrix(0.101552, 0, 0, 0.101552, 13.576811, 10.508158)" fill="none" stroke-linejoin="miter" d="M 0.0129379 246.099197 L 968.152411 246.099197 " stroke="#000000" stroke-width="1" stroke-opacity="0.251" stroke-miterlimit="4"/><path stroke-linecap="butt" transform="matrix(0.101552, 0, 0, 0.101552, 13.576811, 10.508158)" fill="none" stroke-linejoin="miter" d="M 0.0129379 123.047897 L 968.152411 123.047897 " stroke="#000000" stroke-width="1" stroke-opacity="0.251" stroke-miterlimit="4"/><path stroke-linecap="butt" transform="matrix(0.101552, 0, 0, 0.101552, 13.576811, 10.508158)" fill="none" stroke-linejoin="miter" d="M 0.0129379 -0.0034032 L 968.152411 -0.0034032 " stroke="#000000" stroke-width="1" stroke-opacity="0.251" stroke-miterlimit="4"/></svg>